<?xml version="1.0" encoding="UTF-8"?>
<svg width="800" height="600" viewBox="0 0 800 600" xmlns="http://www.w3.org/2000/svg">
  <g stroke="#ffffff" stroke-width="1">
    <!-- Germany -->
    <path id="DE" d="M420 250 l20-10 25-5 15 10 -5 20 -15 15 -25 5 -20-5 -10-15 15-15" 
          fill="#e6e6e6"/>
    
    <!-- France -->
    <path id="FR" d="M350 280 l30-20 25 5 15 15 -5 25 -20 15 -25-5 -15-15 -5-20"
          fill="#e6e6e6"/>
    
    <!-- Spain -->
    <path id="ES" d="M300 350 l40-15 30 10 15 20 -10 25 -30 15 -35-10 -10-25 0-20"
          fill="#e6e6e6"/>
    
    <!-- Italy -->
    <path id="IT" d="M420 320 l15-25 10-5 15 5 20 15 10 20 -5 25 -15 20 -25-5 -20-15 -5-35"
          fill="#e6e6e6"/>
    
    <!-- Poland -->
    <path id="PL" d="M460 230 l30-10 25 5 15 15 -5 20 -20 15 -30-5 -15-15 0-25"
          fill="#e6e6e6"/>
    
    <!-- Romania -->
    <path id="RO" d="M500 290 l25-15 20 5 15 20 -5 25 -25 15 -25-5 -15-20 10-25"
          fill="#e6e6e6"/>
    
    <!-- Netherlands -->
    <path id="NL" d="M395 225 l15-10 10 5 5 15 -5 10 -15 5 -10-5 -5-10 5-10"
          fill="#e6e6e6"/>
    
    <!-- Belgium -->
    <path id="BE" d="M380 240 l15-15 15 5 10 10 -5 15 -15 10 -15-5 -5-20"
          fill="#e6e6e6"/>
    
    <!-- Austria -->
    <path id="AT" d="M445 275 l20-10 15 5 10 15 -5 15 -20 10 -15-5 -5-15 0-15"
          fill="#e6e6e6"/>
    
    <!-- Switzerland -->
    <path id="CH" d="M405 275 l15-10 15 5 10 10 -5 15 -15 10 -15-5 -5-15 0-10"
          fill="#e6e6e6"/>
    
    <!-- Czech Republic -->
    <path id="CZ" d="M445 250 l20-10 15 5 10 15 -5 15 -20 10 -15-5 -5-15 0-15"
          fill="#e6e6e6"/>
    
    <!-- Denmark -->
    <path id="DK" d="M420 200 l15-10 10 5 5 15 -5 10 -15 5 -10-5 -5-10 5-10"
          fill="#e6e6e6"/>
    
    <!-- Sweden -->
    <path id="SE" d="M450 150 l30-40 20 10 10 30 -10 40 -20 20 -25-10 -15-30 10-20"
          fill="#e6e6e6"/>
    
    <!-- Norway -->
    <path id="NO" d="M420 120 l40-50 30 10 20 40 -10 50 -30 20 -35-10 -25-40 10-20"
          fill="#e6e6e6"/>
  </g>
</svg>
